<svg width="14" height="16" viewBox="0 0 14 16" fill="none" xmlns="http://www.w3.org/2000/svg">
<path d="M11.2335 3.52831H10.213C10.1036 2.71729 9.70725 1.97231 9.09579 1.4284C8.48434 0.884492 7.69824 0.577655 6.88 0.563507C6.06176 0.577655 5.27567 0.884492 4.66421 1.4284C4.05276 1.97231 3.65641 2.71729 3.547 3.52831H2.527C1.96579 3.52868 1.42766 3.75173 1.03075 4.14849C0.633839 4.54525 0.410586 5.0833 0.410004 5.64451V13.36C0.410507 13.9212 0.633608 14.4592 1.03035 14.856C1.42709 15.2528 1.96506 15.4761 2.5262 15.4767H11.2332C11.7945 15.4762 12.3326 15.2531 12.7294 14.8562C13.1263 14.4594 13.3495 13.9213 13.35 13.36V5.64451C13.3494 5.08338 13.1262 4.54541 12.7294 4.14867C12.3326 3.75192 11.7946 3.52881 11.2335 3.52831ZM6.88 1.66311C7.40741 1.67457 7.91512 1.86568 8.31919 2.20483C8.72325 2.54398 8.99948 3.01087 9.1022 3.52831H4.6578C4.76053 3.01087 5.03676 2.54398 5.44082 2.20483C5.84489 1.86568 6.35259 1.67457 6.88 1.66311ZM12.25 13.36C12.2497 13.6296 12.1425 13.888 11.952 14.0787C11.7614 14.2694 11.503 14.3767 11.2334 14.3771H2.5265C2.25695 14.3767 1.99857 14.2693 1.80801 14.0787C1.61746 13.888 1.51029 13.6296 1.51 13.36V5.64451C1.51032 5.37499 1.61753 5.11659 1.80811 4.92601C1.99869 4.73543 2.25708 4.62822 2.5266 4.62791H11.2336C11.5031 4.62828 11.7614 4.73551 11.952 4.92608C12.1425 5.11666 12.2497 5.37502 12.25 5.64451V13.36Z" fill="white" fill-opacity="0.8"/>
</svg>
