<svg width="8" height="12" viewBox="0 0 8 12" fill="none" xmlns="http://www.w3.org/2000/svg">
<path d="M1.59417 11.7218C1.38085 11.7218 1.19849 11.6478 1.0471 11.4998C0.895704 11.3519 0.820007 11.1713 0.820007 10.9579C0.820007 10.7446 0.899144 10.5588 1.05742 10.4005L5.2276 6.24067L1.05742 2.08082C0.899144 1.92254 0.820007 1.73674 0.820007 1.52342C0.820007 1.31009 0.895704 1.12945 1.0471 0.981501C1.19849 0.833549 1.38085 0.759573 1.59417 0.759573C1.79374 0.759573 1.97266 0.831828 2.13093 0.976339L6.83786 5.66263C7.00302 5.81402 7.0856 6.0067 7.0856 6.24067C7.0856 6.46088 7.00302 6.65356 6.83786 6.81872L2.13093 11.505C1.98642 11.6495 1.8075 11.7218 1.59417 11.7218Z" fill="#2997FF"/>
</svg>
