<svg width="15" height="16" viewBox="0 0 15 16" fill="none" xmlns="http://www.w3.org/2000/svg">
<path d="M14.268 13.702L10.398 9.832C11.099 8.903 11.52 7.751 11.52 6.5C11.52 3.44 9.03098 0.949997 5.96998 0.949997C2.90998 0.949997 0.419983 3.44 0.419983 6.5C0.419983 9.561 2.90998 12.05 5.96998 12.05C7.22098 12.05 8.37298 11.629 9.30198 10.928L13.172 14.798C13.323 14.949 13.522 15.026 13.72 15.026C13.918 15.026 14.116 14.95 14.268 14.798C14.571 14.495 14.571 14.005 14.268 13.702ZM1.51998 6.5C1.51998 4.046 3.51698 2.05 5.96998 2.05C8.42398 2.05 10.42 4.047 10.42 6.5C10.42 8.953 8.42398 10.95 5.96998 10.95C3.51598 10.95 1.51998 8.954 1.51998 6.5Z" fill="white" fill-opacity="0.8"/>
</svg>
