<svg width="5" height="9" viewBox="0 0 5 9" fill="none" xmlns="http://www.w3.org/2000/svg">
<path d="M0.626404 8.14355C0.485128 8.14355 0.36436 8.09456 0.264099 7.99658C0.163839 7.8986 0.113708 7.77897 0.113708 7.6377C0.113708 7.49642 0.166117 7.37337 0.270935 7.26855L3.03265 4.51367L0.270935 1.75879C0.166117 1.65397 0.113708 1.53092 0.113708 1.38965C0.113708 1.24837 0.163839 1.12874 0.264099 1.03076C0.36436 0.93278 0.485128 0.883789 0.626404 0.883789C0.758565 0.883789 0.877055 0.931641 0.981873 1.02734L4.09906 4.13086C4.20844 4.23112 4.26312 4.35872 4.26312 4.51367C4.26312 4.65951 4.20844 4.78711 4.09906 4.89648L0.981873 8C0.886169 8.0957 0.76768 8.14355 0.626404 8.14355Z" fill="#0066CC"/>
</svg>
